<svg width="296" height="304" viewBox="0 0 296 304" fill="none" xmlns="http://www.w3.org/2000/svg">
<path d="M68 163C84.5685 163 98 176.431 98 193V249.643C98 252.601 95.6012 255 92.6426 255C67.9872 255 48.0001 235.013 48 210.357V172C48 167.029 52.0295 163 57 163H68ZM140.206 226.651C144.694 222.82 151.301 222.82 155.789 226.651L170.437 239.155C176.798 244.586 172.957 255 164.593 255H131.402C123.038 255 119.197 244.586 125.559 239.155L140.206 226.651ZM239 163C243.971 163 248 167.029 248 172V210.357C248 235.013 228.013 255 203.357 255C200.399 255 198 252.601 198 249.643V193C198 176.431 211.431 163 228 163H239ZM201.571 48C227.213 48 248 68.7869 248 94.4287C248 97.5056 245.506 99.9999 242.429 100H217C192.147 100 172 120.147 172 145V201.506C172 203.533 169.549 204.549 168.115 203.115C157.006 192.006 138.994 192.006 127.885 203.115C126.451 204.549 124 203.533 124 201.506V145C124 120.147 103.853 100 79 100H53.5713C50.4944 99.9999 48.0001 97.5056 48 94.4287C48 68.7869 68.7869 48 94.4287 48H201.571Z" fill="white"/>
</svg>
